<svg xmlns="http://www.w3.org/2000/svg">
  <defs>
    <!-- php icon -->
    <symbol id="php" viewBox="0 0 80 80">
      <path fill="#dcd5f2" d="M40,61.5C18.22,61.5,0.5,51.855,0.5,40S18.22,18.5,40,18.5S79.5,28.145,79.5,40S61.78,61.5,40,61.5z"/>
      <path fill="#8b75a1" d="M40,19c21.505,0,39,9.421,39,21S61.505,61,40,61S1,51.579,1,40S18.495,19,40,19 M40,18 C17.909,18,0,27.85,0,40s17.909,22,40,22s40-9.85,40-22S62.091,18,40,18L40,18z"/><path fill="#36404d" d="M25.112 34c1.725 0 3.214.622 4.084 1.706.749.934.981 2.171.668 3.577C29.023 43.074 27.395 44 21.57 44h-4.14l1.75-10H25.112M25.112 32H17.5L14 52h2l1.056-6h4.515c5.863 0 9.053-.905 10.246-6.284C32.842 35.096 29.436 32 25.112 32L25.112 32zM61.112 34c1.725 0 3.214.622 4.084 1.706.749.934.981 2.171.668 3.577C65.023 43.074 63.395 44 57.57 44h-4.14l1.75-10H61.112M61.112 32H53.5L50 52h2l1.056-6h4.515c5.863 0 9.053-.905 10.246-6.284C68.842 35.096 65.436 32 61.112 32L61.112 32z"/><g><path fill="#36404d" d="M49.072,33.212C48.193,32.348,46.644,32,44.334,32h-5.538L40,26h-2.1L34,46h1.99l2.388-12h0.419 h5.538c2.338,0,3.094,0.4,3.335,0.637c0.343,0.338,0.424,1.226,0.217,2.363l-1.767,9h2.106l1.626-8.63 C50.199,35.462,49.936,34.062,49.072,33.212z"/></g>
    </symbol>

    <!-- astro icon -->
    <symbol id="astro" viewBox="0 0 85 107">
      <path d="M27.5894 91.1365C22.7555 86.7178 21.3444 77.4335 23.3583 70.7072C26.8503 74.948 31.6888 76.2914 36.7005 77.0497C44.4375 78.2199 52.0359 77.7822 59.2232 74.2459C60.0454 73.841 60.8052 73.3027 61.7036 72.7574C62.378 74.714 62.5535 76.6892 62.318 78.6996C61.7452 83.5957 59.3086 87.3778 55.4332 90.2448C53.8835 91.3916 52.2437 92.4167 50.6432 93.4979C45.7262 96.8213 44.3959 100.718 46.2435 106.386C46.2874 106.525 46.3267 106.663 46.426 107C43.9155 105.876 42.0817 104.24 40.6845 102.089C39.2087 99.8193 38.5066 97.3081 38.4696 94.5909C38.4511 93.2686 38.4511 91.9345 38.2733 90.6309C37.8391 87.4527 36.3471 86.0297 33.5364 85.9478C30.6518 85.8636 28.37 87.6469 27.7649 90.4554C27.7187 90.6707 27.6517 90.8837 27.5847 91.1341L27.5894 91.1365Z" fill="#F041FF"/>
      <path d="M0 69.5866C0 69.5866 14.3139 62.6137 28.6678 62.6137L39.4901 29.1204C39.8953 27.5007 41.0783 26.3999 42.4139 26.3999C43.7495 26.3999 44.9325 27.5007 45.3377 29.1204L56.1601 62.6137C73.1601 62.6137 84.8278 69.5866 84.8278 69.5866C84.8278 69.5866 60.5145 3.35233 60.467 3.21944C59.7692 1.2612 58.5911 0 57.0029 0H27.8274C26.2392 0 25.1087 1.2612 24.3634 3.21944C24.3108 3.34983 0 69.5866 0 69.5866Z" fill="currentColor"/>
    </symbol>

    <!-- javascript icon -->
    <symbol id="javascript" viewBox="0 0 630 630">
      <rect width="630" height="630" fill="#f7df1e"/>
      <path fill="black" d="m423.2 492.19c12.69 20.72 29.2 35.95 58.4 35.95 24.53 0 40.2-12.26 40.2-29.2 0-20.3-16.1-27.49-43.1-39.3l-14.8-6.35c-42.72-18.2-71.1-41-71.1-89.2 0-44.4 33.83-78.2 86.7-78.2 37.64 0 64.7 13.1 84.2 47.4l-46.1 29.6c-10.15-18.2-21.1-25.37-38.1-25.37-17.34 0-28.33 11-28.33 25.37 0 17.76 11 24.95 36.4 35.95l14.8 6.34c50.3 21.57 78.7 43.56 78.7 93 0 53.3-41.87 82.5-98.1 82.5-54.98 0-90.5-26.2-107.88-60.54zm-209.13 5.13c9.3 16.5 17.76 30.45 38.1 30.45 19.45 0 31.72-7.61 31.72-37.2v-201.3h59.2v202.1c0 61.3-35.94 89.2-88.4 89.2-47.4 0-74.85-24.53-88.81-54.075z"/>
    </symbol>

    <!-- typescript icon -->
    <symbol id="typescript" fill="none" viewBox="0 0 512 512">
      <rect fill="#3178c6" height="512" rx="50" width="512"/>
      <rect fill="#3178c6" height="512" rx="50" width="512"/>
      <path clip-rule="evenodd" fill="#fff" fill-rule="evenodd" d="m316.939 407.424v50.061c8.138 4.172 17.763 7.3 28.875 9.386s22.823 3.129 35.135 3.129c11.999 0 23.397-1.147 34.196-3.442 10.799-2.294 20.268-6.075 28.406-11.342 8.138-5.266 14.581-12.15 19.328-20.65s7.121-19.007 7.121-31.522c0-9.074-1.356-17.026-4.069-23.857s-6.625-12.906-11.738-18.225c-5.112-5.319-11.242-10.091-18.389-14.315s-15.207-8.213-24.18-11.967c-6.573-2.712-12.468-5.345-17.685-7.9-5.217-2.556-9.651-5.163-13.303-7.822-3.652-2.66-6.469-5.476-8.451-8.448-1.982-2.973-2.974-6.336-2.974-10.091 0-3.441.887-6.544 2.661-9.308s4.278-5.136 7.512-7.118c3.235-1.981 7.199-3.52 11.894-4.615 4.696-1.095 9.912-1.642 15.651-1.642 4.173 0 8.581.313 13.224.938 4.643.626 9.312 1.591 14.008 2.894 4.695 1.304 9.259 2.947 13.694 4.928 4.434 1.982 8.529 4.276 12.285 6.884v-46.776c-7.616-2.92-15.937-5.084-24.962-6.492s-19.381-2.112-31.066-2.112c-11.895 0-23.163 1.278-33.805 3.833s-20.006 6.544-28.093 11.967c-8.086 5.424-14.476 12.333-19.171 20.729-4.695 8.395-7.043 18.433-7.043 30.114 0 14.914 4.304 27.638 12.912 38.172 8.607 10.533 21.675 19.45 39.204 26.751 6.886 2.816 13.303 5.579 19.25 8.291s11.086 5.528 15.415 8.448c4.33 2.92 7.747 6.101 10.252 9.543 2.504 3.441 3.756 7.352 3.756 11.733 0 3.233-.783 6.231-2.348 8.995s-3.939 5.162-7.121 7.196-7.147 3.624-11.894 4.771c-4.748 1.148-10.303 1.721-16.668 1.721-10.851 0-21.597-1.903-32.24-5.71-10.642-3.806-20.502-9.516-29.579-17.13zm-84.159-123.342h64.22v-41.082h-179v41.082h63.906v182.918h50.874z"/>
    </symbol>

    <!-- tailwind icon -->
    <symbol id="tailwind" viewBox="0 0 47 40" fill="none">
      <path fill="#6366f1" d="M23.5 6.5C17.5 6.5 13.75 9.5 12.25 15.5C14.5 12.5 17.125 11.375 20.125 12.125C21.8367 12.5529 23.0601 13.7947 24.4142 15.1692C26.6202 17.4084 29.1734 20 34.75 20C40.75 20 44.5 17 46 11C43.75 14 41.125 15.125 38.125 14.375C36.4133 13.9471 35.1899 12.7053 33.8357 11.3308C31.6297 9.09158 29.0766 6.5 23.5 6.5ZM12.25 20C6.25 20 2.5 23 1 29C3.25 26 5.875 24.875 8.875 25.625C10.5867 26.0529 11.8101 27.2947 13.1642 28.6693C15.3702 30.9084 17.9234 33.5 23.5 33.5C29.5 33.5 33.25 30.5 34.75 24.5C32.5 27.5 29.875 28.625 26.875 27.875C25.1633 27.4471 23.9399 26.2053 22.5858 24.8307C20.3798 22.5916 17.8266 20 12.25 20Z"/>
    </symbol>

    <symbol id="mysql" viewBox="0 0 230 230" fill="none"><g fill="#00546b"><path d="m235.648 194.212c-13.918-.347-24.705 1.045-33.752 4.872-2.61 1.043-6.786 1.044-7.134 4.35 1.392 1.392 1.566 3.654 2.784 5.567 2.09 3.479 5.741 8.177 9.047 10.614 3.653 2.783 7.308 5.566 11.134 8.002 6.786 4.176 14.442 6.611 21.053 10.787 3.829 2.434 7.654 5.568 11.482 8.177 1.914 1.39 3.131 3.654 5.568 4.523v-.521c-1.219-1.567-1.567-3.828-2.784-5.568-1.738-1.74-3.48-3.306-5.22-5.046-5.045-6.784-11.308-12.7-18.093-17.571-5.567-3.828-17.747-9.047-20.008-15.485 0 0-.175-.173-.348-.347 3.827-.348 8.35-1.74 12.005-2.784 5.915-1.567 11.308-1.218 17.398-2.784 2.783-.696 5.567-1.566 8.35-2.436v-1.565c-3.13-3.132-5.392-7.307-8.698-10.265-8.873-7.657-18.617-15.137-28.707-21.4-5.394-3.48-12.354-5.742-18.095-8.699-2.086-1.045-5.567-1.566-6.784-3.306-3.133-3.827-4.873-8.872-7.134-13.396-5.044-9.57-9.917-20.182-14.267-30.272-3.13-6.786-5.044-13.572-8.872-19.834-17.92-29.577-37.406-47.497-67.33-65.07-6.438-3.653-14.093-5.219-22.27-7.132-4.348-.175-8.699-.522-13.048-.697-2.784-1.218-5.568-4.523-8.004-6.089-9.915-6.264-35.492-19.833-42.799-1.913-4.698 11.308 6.96 22.442 10.96 28.185 2.96 4.001 6.786 8.524 8.874 13.048 1.218 2.956 1.565 6.09 2.783 9.221 2.785 7.653 5.393 16.18 9.048 23.314 1.914 3.653 4.001 7.48 6.437 10.786 1.392 1.913 3.827 2.784 4.35 5.915-2.435 3.48-2.61 8.7-4.003 13.049-6.263 19.66-3.826 44.017 5.046 58.457 2.783 4.348 9.395 13.92 18.268 10.265 7.83-3.131 6.09-13.048 8.35-21.747.524-2.09.176-3.48 1.219-4.872v.349c2.436 4.87 4.871 9.569 7.133 14.44 5.394 8.524 14.788 17.398 22.617 23.314 4.177 3.13 7.482 8.524 12.702 10.438v-.523h-.349c-1.044-1.566-2.61-2.261-4.001-3.48-3.131-3.13-6.612-6.958-9.047-10.438-7.306-9.744-13.745-20.53-19.486-31.665-2.783-5.392-5.22-11.308-7.481-16.701-1.045-2.09-1.045-5.22-2.784-6.263-2.61 3.827-6.437 7.133-8.351 11.83-3.304 7.481-3.653 16.702-4.871 26.27-.696.176-.349 0-.697.35-5.566-1.394-7.48-7.134-9.569-12.006-5.22-12.352-6.09-32.186-1.565-46.452 1.218-3.654 6.438-15.136 4.35-18.616-1.044-3.306-4.525-5.22-6.438-7.829-2.261-3.306-4.698-7.48-6.263-11.135-4.176-9.743-6.264-20.53-10.787-30.273-2.088-4.524-5.74-9.22-8.699-13.396-3.305-4.697-6.959-8.004-9.569-13.571-.869-1.913-2.088-5.045-.696-7.133.348-1.392 1.043-1.913 2.436-2.261 2.262-1.915 8.7.521 10.96 1.565 6.438 2.608 11.831 5.046 17.225 8.699 2.435 1.74 5.045 5.046 8.176 5.916h3.654c5.568 1.217 11.83.348 17.05 1.913 9.222 2.957 17.572 7.307 25.054 12.005 22.792 14.44 41.58 34.97 54.282 59.501 2.088 4 2.957 7.656 4.871 11.83 3.655 8.526 8.178 17.225 11.83 25.576 3.654 8.176 7.133 16.528 12.353 23.314 2.61 3.652 13.048 5.567 17.746 7.481 3.48 1.565 8.874 2.958 12.005 4.871 5.915 3.652 11.83 7.83 17.398 11.83 2.784 2.088 11.482 6.438 12.005 9.917z"/><path d="m58.186 43.022c-2.957 0-5.044.35-7.132.871v.348h.348c1.393 2.784 3.827 4.698 5.566 7.133 1.393 2.783 2.61 5.568 4.003 8.352.173-.175.347-.348.347-.348 2.437-1.741 3.654-4.524 3.654-8.7-1.044-1.217-1.218-2.435-2.088-3.653-1.043-1.741-3.306-2.61-4.698-4.003z"/></g></symbol>
  
    <symbol id="html" fill="none" viewBox="0 0 124 141.53199999999998"><path d="M10.383 126.894L0 0l124 .255-10.979 126.639-50.553 14.638z" fill="#e34f26"/><path d="M62.468 129.277V12.085l51.064.17-9.106 104.851z" fill="#ef652a"/><path d="M99.49 41.362l1.446-15.49H22.383l4.34 47.49h54.213L78.81 93.617l-17.362 4.68-17.617-5.106-.936-12.085H27.319l2.128 24.681 32 8.936 32.255-8.936 4.34-48.17H41.107L39.49 41.362z" fill="#fff"/></symbol>

    <symbol id="css" fill="none" viewBox="0 0 124 141.53"><path d="M10.383 126.892L0 0l124 .255-10.979 126.637-50.553 14.638z" fill="#1b73ba"/><path d="M62.468 129.275V12.085l51.064.17-9.106 104.85z" fill="#1c88c7"/><path d="M100.851 27.064H22.298l2.128 15.318h37.276l-36.68 15.745 2.127 14.808h54.043l-1.958 20.68-18.298 3.575-16.595-4.255-1.277-11.745H27.83l2.042 24.426 32.681 9.106 31.32-9.957 4-47.745H64.765l36.085-14.978z" fill="#fff"/></symbol>

    <symbol id="vue" viewBox="0 0 256 221" preserveAspectRatio="xMinYMin meet"><path d="M204.8 0H256L128 220.8 0 0h97.92L128 51.2 157.44 0h47.36z" fill="#41B883"/><path d="M0 0l128 220.8L256 0h-51.2L128 132.48 50.56 0H0z" fill="#41B883"/><path d="M50.56 0L128 133.12 204.8 0h-47.36L128 51.2 97.92 0H50.56z" fill="#35495E"/></symbol>

    <symbol id="angular" viewBox="0 0 256 272" preserveAspectRatio="xMidYMid"><path d="M.1 45.522L125.908.697l129.196 44.028-20.919 166.45-108.277 59.966-106.583-59.169L.1 45.522z" fill="#E23237"/><path d="M255.104 44.725L125.908.697v270.444l108.277-59.866 20.919-166.55z" fill="#B52E31"/><path d="M126.107 32.274L47.714 206.693l29.285-.498 15.739-39.347h70.325l17.233 39.845 27.99.498-82.179-174.917zm.2 55.882l26.496 55.383h-49.806l23.31-55.383z" fill="#FFF"/></symbol>
  </defs>
</svg>